<svg xmlns="http://www.w3.org/2000/svg" width="47" height="47" viewBox="0 0 47 47">
  <defs>
    <style>
      .cls-1, .cls-4 {
        fill: none;
      }

      .cls-1 {
        stroke: #d1d1d1;
        stroke-width: 2px;
      }

      .cls-2 {
        fill: #d1d1d1;
      }

      .cls-3 {
        stroke: none;
      }
    </style>
  </defs>
  <g id="Group_1828" data-name="Group 1828" transform="translate(-998 -4630)">
    <g id="Rectangle_893" data-name="Rectangle 893" class="cls-1" transform="translate(998 4630)">
      <rect class="cls-3" width="47" height="47" rx="12"/>
      <rect class="cls-4" x="1" y="1" width="45" height="45" rx="11"/>
    </g>
    <g id="Group_639" data-name="Group 639" transform="translate(1001.07 4634.07)">
      <g id="Group_638" data-name="Group 638" transform="translate(5 5)">
        <path id="Path_2774" data-name="Path 2774" class="cls-2" d="M19.317,5.914,15.846,5.13A5.255,5.255,0,0,0,9.562,9.1l-.791,3.5A14.485,14.485,0,0,1,19.317,5.914Z" transform="translate(-5.738 -5)"/>
        <path id="Path_2775" data-name="Path 2775" class="cls-2" d="M5.914,26.119,5.13,29.59A5.255,5.255,0,0,0,9.1,35.874l3.5.791A14.486,14.486,0,0,1,5.914,26.119Z" transform="translate(-5 -9.131)"/>
        <path id="Path_2776" data-name="Path 2776" class="cls-2" d="M37.053,9.562l-3.5-.791a14.485,14.485,0,0,1,6.685,10.545l.784-3.471A5.255,5.255,0,0,0,37.053,9.562Z" transform="translate(-10.585 -5.738)"/>
        <path id="Path_2777" data-name="Path 2777" class="cls-2" d="M26.119,40.238l3.471.784a5.255,5.255,0,0,0,6.284-3.969l.791-3.5A14.485,14.485,0,0,1,26.119,40.238Z" transform="translate(-9.131 -10.585)"/>
      </g>
      <path id="Path_2778" data-name="Path 2778" class="cls-2" d="M20.871,8A12.871,12.871,0,1,0,33.741,20.871,12.87,12.87,0,0,0,20.871,8Zm-3.218,4.022a3.218,3.218,0,1,1-3.218,3.218A3.218,3.218,0,0,1,17.653,12.022ZM15.24,27.306a3.218,3.218,0,1,1,3.218-3.218A3.218,3.218,0,0,1,15.24,27.306Zm4.022-6.435a1.609,1.609,0,1,1,1.609,1.572A1.609,1.609,0,0,1,19.262,20.871Zm4.826,8.849A3.218,3.218,0,1,1,27.306,26.5,3.218,3.218,0,0,1,24.088,29.719ZM26.5,20.871a3.218,3.218,0,1,1,3.218-3.218A3.218,3.218,0,0,1,26.5,20.871Z" transform="translate(-0.587 -0.587)"/>
    </g>
  </g>
</svg>
